<svg width="1024" height="1024" viewBox="0 0 1024 1024" fill="none" xmlns="http://www.w3.org/2000/svg">
<g clip-path="url(#clip0_3002_73)">
<rect width="1024" height="1024" fill="#5822EE"/>
<path d="M247.013 17.0263C247.013 17.0263 -13.4653 97.5544 30.674 295.18C41.8127 345.051 73.3202 378.041 113.626 397.284M113.626 397.284C233.039 454.294 429.68 390.639 402.658 287.834C371.58 169.597 141.919 235.685 113.626 397.284ZM113.626 397.284C109.015 423.619 109.752 452.491 117.569 483.515C138.538 566.742 196.711 612.572 259.843 631.644M259.843 631.644C364.65 663.305 483.126 621.221 467.743 554.067C445.961 458.98 274.837 516.613 259.843 631.644ZM259.843 631.644C257.869 646.788 258.601 662.927 262.737 679.844C298.284 825.252 488.213 784.602 488.213 784.602" stroke="#6834F7" stroke-width="63.2099"/>
<path d="M256.228 863.696L169.405 977.749M191.709 816.29C148.207 849.803 -14.7348 975.33 -98.4674 1039.84M157.989 745.158L-43.4519 820.806" stroke="#CDF563" stroke-width="75.8519"/>
<path d="M718.278 216.472L820.427 79.3345M797.472 276.677L1118.09 19.0546M838.07 339.675L1095.13 200.099" stroke="#CDF563" stroke-width="75.8519"/>
<path d="M942.051 746.442C820.987 758.095 929.697 940.008 929.697 940.008C929.697 940.008 688.064 766.397 695.476 1014.34C702.888 1262.28 922.779 1070.71 922.779 1070.71C922.779 1070.71 733.524 1245.32 922.779 1285.23C1112.03 1325.14 1026.05 1070.71 1026.05 1070.71C1026.05 1070.71 1140.2 1285.23 1250.89 1135.57C1361.57 985.905 1082.39 989.896 1082.39 989.896C1082.39 989.896 1357.15 981.914 1236.56 819.279C1115.97 656.644 1026.05 907.082 1026.05 907.082C1026.05 907.082 1063.11 734.789 942.051 746.442Z" stroke="#F674A2" stroke-width="50.5679"/>
<path d="M-158.222 -423.759L-213.318 -783.802L-325.009 -406.042L-738.267 -553.684L-457.008 -261.454L-872.296 -4.8623L-393.039 -96.5024V341.333L-180.826 -96.5024L278.123 80.6683L-76.8536 -261.454L227.355 -508.882L-158.222 -423.759Z" stroke="#DA84FE" stroke-width="63.2099"/>
<g filter="url(#filter0_d_3002_73)">
<path d="M97.1034 540.154C78.2921 540.154 60.3911 534.237 47.3446 522.556L63.7286 502.986C74.1961 511.33 85.8773 515.729 98.1653 515.729C106.054 515.729 110.302 512.999 110.302 508.448V508.144C110.302 503.745 106.812 501.318 92.4006 497.98C69.7967 492.822 52.3508 486.451 52.3508 464.605V464.302C52.3508 444.58 67.9763 430.32 93.4625 430.32C111.515 430.32 125.624 435.175 137.153 444.429L122.438 465.212C112.729 458.385 102.11 454.745 92.704 454.745C85.5739 454.745 82.0847 457.779 82.0847 461.571V461.875C82.0847 466.729 85.7256 468.853 100.441 472.191C124.865 477.5 140.036 485.389 140.036 505.262V505.565C140.036 527.259 122.893 540.154 97.1034 540.154ZM187.723 540.305C161.478 540.305 142.515 521.039 142.515 497.677V497.373C142.515 474.011 161.63 454.441 188.026 454.441C214.271 454.441 233.234 473.708 233.234 497.07V497.373C233.234 520.736 214.119 540.305 187.723 540.305ZM188.026 515.881C198.494 515.881 205.169 507.537 205.169 497.677V497.373C205.169 487.361 197.887 478.865 187.723 478.865C177.255 478.865 170.58 487.209 170.58 497.07V497.373C170.58 507.386 177.862 515.881 188.026 515.881ZM265.888 540.154C248.442 540.154 237.974 528.624 237.974 509.965V456.262H266.798V500.711C266.798 509.661 271.501 514.516 278.479 514.516C285.306 514.516 290.464 509.661 290.464 500.711V456.262H319.288V538.333H290.464V527.107C285.154 533.934 277.569 540.154 265.888 540.154ZM327.903 538.333V456.262H356.726V467.791C362.036 460.964 369.621 454.441 381.302 454.441C398.748 454.441 409.216 465.971 409.216 484.63V538.333H380.392V493.884C380.392 484.934 375.689 480.079 368.863 480.079C361.884 480.079 356.726 484.934 356.726 493.884V538.333H327.903ZM450.447 540.154C431.029 540.154 414.19 523.921 414.19 497.677V497.373C414.19 470.673 430.878 454.441 450.296 454.441C462.735 454.441 470.017 460.054 475.479 466.274V427.59H504.302V538.333H475.479V527.411C469.865 534.237 462.735 540.154 450.447 540.154ZM459.246 516.033C468.5 516.033 475.934 508.296 475.934 497.373V497.07C475.934 486.299 468.5 478.562 459.246 478.562C449.992 478.562 442.407 486.147 442.407 497.07V497.373C442.407 508.296 449.992 516.033 459.246 516.033ZM565.709 540.457C535.368 540.457 510.944 517.247 510.944 485.54V485.237C510.944 454.289 534.761 430.017 566.923 430.017C588.616 430.017 602.573 439.119 611.979 452.166L589.83 469.308C583.762 461.723 576.783 456.868 566.619 456.868C551.752 456.868 541.285 469.46 541.285 484.934V485.237C541.285 501.166 551.752 513.606 566.619 513.606C577.694 513.606 584.217 508.448 590.588 500.711L612.737 516.488C602.725 530.293 589.223 540.457 565.709 540.457ZM616.904 538.333V456.262H645.728V472.797C650.431 461.571 658.016 454.289 671.669 454.896V485.237H669.242C654.223 485.237 645.728 493.884 645.728 512.847V538.333H616.904ZM715.355 540.305C689.111 540.305 670.148 521.039 670.148 497.677V497.373C670.148 474.011 689.262 454.441 715.659 454.441C741.903 454.441 760.866 473.708 760.866 497.07V497.373C760.866 520.736 741.752 540.305 715.355 540.305ZM715.659 515.881C726.126 515.881 732.801 507.537 732.801 497.677V497.373C732.801 487.361 725.519 478.865 715.355 478.865C704.888 478.865 698.213 487.209 698.213 497.07V497.373C698.213 507.386 705.495 515.881 715.659 515.881ZM781.477 538.94L756.446 456.262H784.663L795.433 497.525L808.025 455.958H831.842L844.585 497.828L855.66 456.262H883.422L858.087 538.94H833.208L819.858 496.311L806.204 538.94H781.477ZM916.462 540.154C897.044 540.154 880.205 523.921 880.205 497.677V497.373C880.205 470.673 896.892 454.441 916.31 454.441C928.75 454.441 936.032 460.054 941.493 466.274V427.59H970.317V538.333H941.493V527.411C935.88 534.237 928.75 540.154 916.462 540.154ZM925.261 516.033C934.515 516.033 941.948 508.296 941.948 497.373V497.07C941.948 486.299 934.515 478.562 925.261 478.562C916.007 478.562 908.422 486.147 908.422 497.07V497.373C908.422 508.296 916.007 516.033 925.261 516.033Z" fill="white"/>
</g>
</g>
<defs>
<filter id="filter0_d_3002_73" x="47.3446" y="427.59" width="922.972" height="119.189" filterUnits="userSpaceOnUse" color-interpolation-filters="sRGB">
<feFlood flood-opacity="0" result="BackgroundImageFix"/>
<feColorMatrix in="SourceAlpha" type="matrix" values="0 0 0 0 0 0 0 0 0 0 0 0 0 0 0 0 0 0 127 0" result="hardAlpha"/>
<feOffset dy="6.32099"/>
<feComposite in2="hardAlpha" operator="out"/>
<feColorMatrix type="matrix" values="0 0 0 0 0.854902 0 0 0 0 0.517647 0 0 0 0 0.996078 0 0 0 1 0"/>
<feBlend mode="normal" in2="BackgroundImageFix" result="effect1_dropShadow_3002_73"/>
<feBlend mode="normal" in="SourceGraphic" in2="effect1_dropShadow_3002_73" result="shape"/>
</filter>
<clipPath id="clip0_3002_73">
<rect width="1024" height="1024" fill="white"/>
</clipPath>
</defs>
</svg>
